solid netdem
facet normal -0.325225 -0.362281 -0.873488
outer loop
vertex 0.0266309 0.0121205 -0.999572
vertex 0.202717 -0.370546 -0.906422
vertex -0.742485 -0.383847 -0.548979
endloop
endfacet
facet normal 0.690548 -0.715537 0.105598
outer loop
vertex 0.962438 -0.209411 0.172799
vertex 0.1925 -0.981071 -0.0210676
vertex 0.478017 -0.765879 -0.430033
endloop
endfacet
facet normal 0.440598 0.0803692 -0.8941
outer loop
vertex 0.495529 -0.263516 -0.827654
vertex 0.10344 0.035285 -0.99401
vertex 0.495235 0.406994 -0.767527
endloop
endfacet
facet normal -0.192021 -0.806884 -0.558629
outer loop
vertex 0.1925 -0.981071 -0.0210676
vertex 0.202717 -0.370546 -0.906422
vertex 0.478017 -0.765879 -0.430033
endloop
endfacet
facet normal 0.860996 -0.333771 -0.383775
outer loop
vertex 0.495529 -0.263516 -0.827654
vertex 0.962438 -0.209411 0.172799
vertex 0.478017 -0.765879 -0.430033
endloop
endfacet
facet normal 0.48561 0.64151 0.593842
outer loop
vertex -0.222545 0.790579 0.570491
vertex 0.378444 0.00692071 0.925598
vertex 0.924115 0.372719 0.0842187
endloop
endfacet
facet normal 0.801448 0.141195 0.581159
outer loop
vertex 0.924115 0.372719 0.0842187
vertex 0.378444 0.00692071 0.925598
vertex 0.962438 -0.209411 0.172799
endloop
endfacet
facet normal -0.199615 -0.805595 -0.557827
outer loop
vertex -0.742485 -0.383847 -0.548979
vertex 0.202717 -0.370546 -0.906422
vertex 0.1925 -0.981071 -0.0210676
endloop
endfacet
facet normal -0.631539 -0.652232 0.419228
outer loop
vertex 0.1925 -0.981071 -0.0210676
vertex -0.0889968 -0.0557586 0.99447
vertex -0.981749 0.051855 -0.182977
endloop
endfacet
facet normal -0.514689 0.544749 -0.662075
outer loop
vertex -0.981749 0.051855 -0.182977
vertex 0.301821 0.698859 -0.64846
vertex 0.0266309 0.0121205 -0.999572
endloop
endfacet
facet normal -0.640398 -0.668834 0.37756
outer loop
vertex -0.742485 -0.383847 -0.548979
vertex 0.1925 -0.981071 -0.0210676
vertex -0.981749 0.051855 -0.182977
endloop
endfacet
facet normal 0.124945 -0.180012 -0.975697
outer loop
vertex 0.10344 0.035285 -0.99401
vertex 0.202717 -0.370546 -0.906422
vertex 0.0266309 0.0121205 -0.999572
endloop
endfacet
facet normal -0.592795 0.301718 -0.7467
outer loop
vertex -0.981749 0.051855 -0.182977
vertex 0.0266309 0.0121205 -0.999572
vertex -0.742485 -0.383847 -0.548979
endloop
endfacet
facet normal -0.511299 0.812144 -0.28106
outer loop
vertex -0.222545 0.790579 0.570491
vertex 0.301821 0.698859 -0.64846
vertex -0.981749 0.051855 -0.182977
endloop
endfacet
facet normal 0.716195 0.611687 -0.336011
outer loop
vertex 0.301821 0.698859 -0.64846
vertex 0.924115 0.372719 0.0842187
vertex 0.495235 0.406994 -0.767527
endloop
endfacet
facet normal 0.375137 0.922396 0.0919703
outer loop
vertex -0.222545 0.790579 0.570491
vertex 0.924115 0.372719 0.0842187
vertex 0.301821 0.698859 -0.64846
endloop
endfacet
facet normal 0.163518 0.553131 0.81689
outer loop
vertex -0.275717 0.300254 0.913142
vertex 0.137837 0.0671874 0.988173
vertex -0.222545 0.790579 0.570491
endloop
endfacet
facet normal -0.777335 -0.278876 0.563895
outer loop
vertex -0.0889968 -0.0557586 0.99447
vertex -0.275717 0.300254 0.913142
vertex -0.981749 0.051855 -0.182977
endloop
endfacet
facet normal -0.0812831 0.47935 -0.873852
outer loop
vertex 0.301821 0.698859 -0.64846
vertex 0.10344 0.035285 -0.99401
vertex 0.0266309 0.0121205 -0.999572
endloop
endfacet
facet normal 0.104918 0.434466 -0.894557
outer loop
vertex 0.495235 0.406994 -0.767527
vertex 0.10344 0.035285 -0.99401
vertex 0.301821 0.698859 -0.64846
endloop
endfacet
facet normal 0.301623 -0.130062 -0.944514
outer loop
vertex 0.495529 -0.263516 -0.827654
vertex 0.202717 -0.370546 -0.906422
vertex 0.10344 0.035285 -0.99401
endloop
endfacet
facet normal 0.402117 -0.576812 -0.711048
outer loop
vertex 0.478017 -0.765879 -0.430033
vertex 0.202717 -0.370546 -0.906422
vertex 0.495529 -0.263516 -0.827654
endloop
endfacet
facet normal 0.906259 -0.00465774 -0.422698
outer loop
vertex 0.495529 -0.263516 -0.827654
vertex 0.924115 0.372719 0.0842187
vertex 0.962438 -0.209411 0.172799
endloop
endfacet
facet normal 0.893082 0.0405703 -0.448061
outer loop
vertex 0.495235 0.406994 -0.767527
vertex 0.924115 0.372719 0.0842187
vertex 0.495529 -0.263516 -0.827654
endloop
endfacet
facet normal 0.195119 -0.697444 0.689565
outer loop
vertex 0.1925 -0.981071 -0.0210676
vertex 0.378444 0.00692071 0.925598
vertex -0.0889968 -0.0557586 0.99447
endloop
endfacet
facet normal 0.502275 -0.64566 0.575189
outer loop
vertex 0.962438 -0.209411 0.172799
vertex 0.378444 0.00692071 0.925598
vertex 0.1925 -0.981071 -0.0210676
endloop
endfacet
facet normal -0.073295 0.185414 0.979923
outer loop
vertex -0.0889968 -0.0557586 0.99447
vertex 0.137837 0.0671874 0.988173
vertex -0.275717 0.300254 0.913142
endloop
endfacet
facet normal -0.811486 0.391303 0.434018
outer loop
vertex -0.981749 0.051855 -0.182977
vertex -0.275717 0.300254 0.913142
vertex -0.222545 0.790579 0.570491
endloop
endfacet
facet normal 0.176303 -0.276901 0.944586
outer loop
vertex 0.378444 0.00692071 0.925598
vertex 0.137837 0.0671874 0.988173
vertex -0.0889968 -0.0557586 0.99447
endloop
endfacet
facet normal 0.338475 0.591277 0.732001
outer loop
vertex -0.222545 0.790579 0.570491
vertex 0.137837 0.0671874 0.988173
vertex 0.378444 0.00692071 0.925598
endloop
endfacet
endsolid netdem
