solid AutoCAD
   facet normal 0.0000000e+00 -0.0000000e+00 1.0000000e+00
      outer loop
         vertex 2.7278393e-02 1.6708118e+00 4.0000010e+00
         vertex 3.9727236e+00 1.6708118e+00 4.0000010e+00
         vertex 1.0000000e-06 2.0000010e+00 4.0000010e+00
      endloop
   endfacet
   facet normal -0.0000000e+00 0.0000000e+00 1.0000000e+00
      outer loop
         vertex 1.0000000e-06 2.0000010e+00 4.0000010e+00
         vertex 3.9727236e+00 1.6708118e+00 4.0000010e+00
         vertex 4.0000010e+00 2.0000010e+00 4.0000010e+00
      endloop
   endfacet
   facet normal 0.0000000e+00 -0.0000000e+00 1.0000000e+00
      outer loop
         vertex 1.0000000e-06 2.0000010e+00 4.0000010e+00
         vertex 4.0000010e+00 2.0000010e+00 4.0000010e+00
         vertex 2.7278393e-02 2.3291902e+00 4.0000010e+00
      endloop
   endfacet
   facet normal -0.0000000e+00 -0.0000000e+00 1.0000000e+00
      outer loop
         vertex 2.7278393e-02 2.3291902e+00 4.0000010e+00
         vertex 4.0000010e+00 2.0000010e+00 4.0000010e+00
         vertex 3.9727236e+00 2.3291902e+00 4.0000010e+00
      endloop
   endfacet
   facet normal 0.0000000e+00 -0.0000000e+00 1.0000000e+00
      outer loop
         vertex 2.7278393e-02 2.3291902e+00 4.0000010e+00
         vertex 3.9727236e+00 2.3291902e+00 4.0000010e+00
         vertex 1.0836652e-01 2.6493999e+00 4.0000010e+00
      endloop
   endfacet
   facet normal -0.0000000e+00 -0.0000000e+00 1.0000000e+00
      outer loop
         vertex 1.0836652e-01 2.6493999e+00 4.0000010e+00
         vertex 3.9727236e+00 2.3291902e+00 4.0000010e+00
         vertex 3.8916355e+00 2.6493999e+00 4.0000010e+00
      endloop
   endfacet
   facet normal 0.0000000e+00 -0.0000000e+00 1.0000000e+00
      outer loop
         vertex 1.0836652e-01 2.6493999e+00 4.0000010e+00
         vertex 3.8916355e+00 2.6493999e+00 4.0000010e+00
         vertex 2.4105350e-01 2.9518958e+00 4.0000010e+00
      endloop
   endfacet
   facet normal -0.0000000e+00 -0.0000000e+00 1.0000000e+00
      outer loop
         vertex 2.4105350e-01 2.9518958e+00 4.0000010e+00
         vertex 3.8916355e+00 2.6493999e+00 4.0000010e+00
         vertex 3.7589485e+00 2.9518958e+00 4.0000010e+00
      endloop
   endfacet
   facet normal 0.0000000e+00 -0.0000000e+00 1.0000000e+00
      outer loop
         vertex 2.4105350e-01 2.9518958e+00 4.0000010e+00
         vertex 3.7589485e+00 2.9518958e+00 4.0000010e+00
         vertex 4.2171998e-01 3.2284264e+00 4.0000010e+00
      endloop
   endfacet
   facet normal -0.0000000e+00 -0.0000000e+00 1.0000000e+00
      outer loop
         vertex 4.2171998e-01 3.2284264e+00 4.0000010e+00
         vertex 3.7589485e+00 2.9518958e+00 4.0000010e+00
         vertex 3.5782820e+00 3.2284264e+00 4.0000010e+00
      endloop
   endfacet
   facet normal 0.0000000e+00 -0.0000000e+00 1.0000000e+00
      outer loop
         vertex 4.2171998e-01 3.2284264e+00 4.0000010e+00
         vertex 3.5782820e+00 3.2284264e+00 4.0000010e+00
         vertex 6.4543786e-01 3.4714488e+00 4.0000010e+00
      endloop
   endfacet
   facet normal -0.0000000e+00 -0.0000000e+00 1.0000000e+00
      outer loop
         vertex 6.4543786e-01 3.4714488e+00 4.0000010e+00
         vertex 3.5782820e+00 3.2284264e+00 4.0000010e+00
         vertex 3.3545641e+00 3.4714488e+00 4.0000010e+00
      endloop
   endfacet
   facet normal 0.0000000e+00 -0.0000000e+00 1.0000000e+00
      outer loop
         vertex 6.4543786e-01 3.4714488e+00 4.0000010e+00
         vertex 3.3545641e+00 3.4714488e+00 4.0000010e+00
         vertex 9.0610468e-01 3.6743340e+00 4.0000010e+00
      endloop
   endfacet
   facet normal -0.0000000e+00 -0.0000000e+00 1.0000000e+00
      outer loop
         vertex 9.0610468e-01 3.6743340e+00 4.0000010e+00
         vertex 3.3545641e+00 3.4714488e+00 4.0000010e+00
         vertex 3.0938973e+00 3.6743340e+00 4.0000010e+00
      endloop
   endfacet
   facet normal 0.0000000e+00 -0.0000000e+00 1.0000000e+00
      outer loop
         vertex 9.0610468e-01 3.6743340e+00 4.0000010e+00
         vertex 3.0938973e+00 3.6743340e+00 4.0000010e+00
         vertex 1.1966102e+00 3.8315477e+00 4.0000010e+00
      endloop
   endfacet
   facet normal -0.0000000e+00 -0.0000000e+00 1.0000000e+00
      outer loop
         vertex 1.1966102e+00 3.8315477e+00 4.0000010e+00
         vertex 3.0938973e+00 3.6743340e+00 4.0000010e+00
         vertex 2.8033918e+00 3.8315477e+00 4.0000010e+00
      endloop
   endfacet
   facet normal 0.0000000e+00 -0.0000000e+00 1.0000000e+00
      outer loop
         vertex 1.1966102e+00 3.8315477e+00 4.0000010e+00
         vertex 2.8033918e+00 3.8315477e+00 4.0000010e+00
         vertex 1.5090300e+00 3.9388015e+00 4.0000010e+00
      endloop
   endfacet
   facet normal -0.0000000e+00 -0.0000000e+00 1.0000000e+00
      outer loop
         vertex 1.5090300e+00 3.9388015e+00 4.0000010e+00
         vertex 2.8033918e+00 3.8315477e+00 4.0000010e+00
         vertex 2.4909720e+00 3.9388015e+00 4.0000010e+00
      endloop
   endfacet
   facet normal 0.0000000e+00 -0.0000000e+00 1.0000000e+00
      outer loop
         vertex 1.5090300e+00 3.9388015e+00 4.0000010e+00
         vertex 2.4909720e+00 3.9388015e+00 4.0000010e+00
         vertex 1.8348423e+00 3.9931700e+00 4.0000010e+00
      endloop
   endfacet
   facet normal -0.0000000e+00 -0.0000000e+00 1.0000000e+00
      outer loop
         vertex 1.8348423e+00 3.9931700e+00 4.0000010e+00
         vertex 2.4909720e+00 3.9388015e+00 4.0000010e+00
         vertex 2.1651597e+00 3.9931700e+00 4.0000010e+00
      endloop
   endfacet
   facet normal 0.0000000e+00 0.0000000e+00 1.0000000e+00
      outer loop
         vertex 3.9727236e+00 1.6708118e+00 4.0000010e+00
         vertex 2.7278393e-02 1.6708118e+00 4.0000010e+00
         vertex 3.8916355e+00 1.3506021e+00 4.0000010e+00
      endloop
   endfacet
   facet normal 0.0000000e+00 0.0000000e+00 1.0000000e+00
      outer loop
         vertex 3.8916355e+00 1.3506021e+00 4.0000010e+00
         vertex 2.7278393e-02 1.6708118e+00 4.0000010e+00
         vertex 1.0836652e-01 1.3506021e+00 4.0000010e+00
      endloop
   endfacet
   facet normal 0.0000000e+00 0.0000000e+00 1.0000000e+00
      outer loop
         vertex 3.8916355e+00 1.3506021e+00 4.0000010e+00
         vertex 1.0836652e-01 1.3506021e+00 4.0000010e+00
         vertex 3.7589485e+00 1.0481062e+00 4.0000010e+00
      endloop
   endfacet
   facet normal 0.0000000e+00 0.0000000e+00 1.0000000e+00
      outer loop
         vertex 3.7589485e+00 1.0481062e+00 4.0000010e+00
         vertex 1.0836652e-01 1.3506021e+00 4.0000010e+00
         vertex 2.4105350e-01 1.0481062e+00 4.0000010e+00
      endloop
   endfacet
   facet normal 0.0000000e+00 0.0000000e+00 1.0000000e+00
      outer loop
         vertex 3.7589485e+00 1.0481062e+00 4.0000010e+00
         vertex 2.4105350e-01 1.0481062e+00 4.0000010e+00
         vertex 3.5782820e+00 7.7157557e-01 4.0000010e+00
      endloop
   endfacet
   facet normal 0.0000000e+00 0.0000000e+00 1.0000000e+00
      outer loop
         vertex 3.5782820e+00 7.7157557e-01 4.0000010e+00
         vertex 2.4105350e-01 1.0481062e+00 4.0000010e+00
         vertex 4.2171998e-01 7.7157557e-01 4.0000010e+00
      endloop
   endfacet
   facet normal 0.0000000e+00 0.0000000e+00 1.0000000e+00
      outer loop
         vertex 3.5782820e+00 7.7157557e-01 4.0000010e+00
         vertex 4.2171998e-01 7.7157557e-01 4.0000010e+00
         vertex 3.3545641e+00 5.2855318e-01 4.0000010e+00
      endloop
   endfacet
   facet normal 0.0000000e+00 0.0000000e+00 1.0000000e+00
      outer loop
         vertex 3.3545641e+00 5.2855318e-01 4.0000010e+00
         vertex 4.2171998e-01 7.7157557e-01 4.0000010e+00
         vertex 6.4543786e-01 5.2855318e-01 4.0000010e+00
      endloop
   endfacet
   facet normal 0.0000000e+00 0.0000000e+00 1.0000000e+00
      outer loop
         vertex 3.3545641e+00 5.2855318e-01 4.0000010e+00
         vertex 6.4543786e-01 5.2855318e-01 4.0000010e+00
         vertex 3.0938973e+00 3.2566804e-01 4.0000010e+00
      endloop
   endfacet
   facet normal 0.0000000e+00 0.0000000e+00 1.0000000e+00
      outer loop
         vertex 3.0938973e+00 3.2566804e-01 4.0000010e+00
         vertex 6.4543786e-01 5.2855318e-01 4.0000010e+00
         vertex 9.0610468e-01 3.2566804e-01 4.0000010e+00
      endloop
   endfacet
   facet normal 0.0000000e+00 0.0000000e+00 1.0000000e+00
      outer loop
         vertex 3.0938973e+00 3.2566804e-01 4.0000010e+00
         vertex 9.0610468e-01 3.2566804e-01 4.0000010e+00
         vertex 2.8033918e+00 1.6845435e-01 4.0000010e+00
      endloop
   endfacet
   facet normal 0.0000000e+00 0.0000000e+00 1.0000000e+00
      outer loop
         vertex 2.8033918e+00 1.6845435e-01 4.0000010e+00
         vertex 9.0610468e-01 3.2566804e-01 4.0000010e+00
         vertex 1.1966102e+00 1.6845435e-01 4.0000010e+00
      endloop
   endfacet
   facet normal 0.0000000e+00 0.0000000e+00 1.0000000e+00
      outer loop
         vertex 2.8033918e+00 1.6845435e-01 4.0000010e+00
         vertex 1.1966102e+00 1.6845435e-01 4.0000010e+00
         vertex 2.4909720e+00 6.1200468e-02 4.0000010e+00
      endloop
   endfacet
   facet normal 0.0000000e+00 0.0000000e+00 1.0000000e+00
      outer loop
         vertex 2.4909720e+00 6.1200468e-02 4.0000010e+00
         vertex 1.1966102e+00 1.6845435e-01 4.0000010e+00
         vertex 1.5090300e+00 6.1200468e-02 4.0000010e+00
      endloop
   endfacet
   facet normal 0.0000000e+00 0.0000000e+00 1.0000000e+00
      outer loop
         vertex 2.4909720e+00 6.1200468e-02 4.0000010e+00
         vertex 1.5090300e+00 6.1200468e-02 4.0000010e+00
         vertex 2.1651597e+00 6.8320140e-03 4.0000010e+00
      endloop
   endfacet
   facet normal 0.0000000e+00 0.0000000e+00 1.0000000e+00
      outer loop
         vertex 2.1651597e+00 6.8320140e-03 4.0000010e+00
         vertex 1.5090300e+00 6.1200468e-02 4.0000010e+00
         vertex 1.8348423e+00 6.8320140e-03 4.0000010e+00
      endloop
   endfacet
   facet normal -8.9198075e-01 7.3911632e-02 -4.4599037e-01
      outer loop
         vertex 2.7278393e-02 2.3291902e+00 4.0000010e+00
         vertex 2.0000010e+00 2.0000010e+00 1.0000000e-06
         vertex 1.0000000e-06 2.0000010e+00 4.0000010e+00
      endloop
   endfacet
   facet normal -8.1965170e-01 3.5953257e-01 -4.4599037e-01
      outer loop
         vertex 2.4105350e-01 2.9518958e+00 4.0000010e+00
         vertex 2.0000010e+00 2.0000010e+00 1.0000000e-06
         vertex 1.0836652e-01 2.6493999e+00 4.0000010e+00
      endloop
   endfacet
   facet normal -6.5850068e-01 6.0619258e-01 -4.4599037e-01
      outer loop
         vertex 6.4543786e-01 3.4714488e+00 4.0000010e+00
         vertex 2.0000010e+00 2.0000010e+00 1.0000000e-06
         vertex 4.2171998e-01 3.2284264e+00 4.0000010e+00
      endloop
   endfacet
   facet normal -4.2599089e-01 7.8716221e-01 -4.4599037e-01
      outer loop
         vertex 1.1966102e+00 3.8315477e+00 4.0000010e+00
         vertex 2.0000010e+00 2.0000010e+00 1.0000000e-06
         vertex 9.0610468e-01 3.6743340e+00 4.0000010e+00
      endloop
   endfacet
   facet normal -2.9061828e-01 8.4654214e-01 -4.4599037e-01
      outer loop
         vertex 1.5090300e+00 3.9388015e+00 4.0000010e+00
         vertex 2.0000010e+00 2.0000010e+00 1.0000000e-06
         vertex 1.1966102e+00 3.8315477e+00 4.0000010e+00
      endloop
   endfacet
   facet normal 0.0000000e+00 8.9503776e-01 -4.4599037e-01
      outer loop
         vertex 2.1651597e+00 3.9931700e+00 4.0000010e+00
         vertex 2.0000010e+00 2.0000010e+00 1.0000000e-06
         vertex 1.8348423e+00 3.9931700e+00 4.0000010e+00
      endloop
   endfacet
   facet normal 2.9061828e-01 8.4654214e-01 -4.4599037e-01
      outer loop
         vertex 2.8033918e+00 3.8315477e+00 4.0000010e+00
         vertex 2.0000010e+00 2.0000010e+00 1.0000000e-06
         vertex 2.4909720e+00 3.9388015e+00 4.0000010e+00
      endloop
   endfacet
   facet normal 5.4974357e-01 7.0631055e-01 -4.4599037e-01
      outer loop
         vertex 3.3545641e+00 3.4714488e+00 4.0000010e+00
         vertex 2.0000010e+00 2.0000010e+00 1.0000000e-06
         vertex 3.0938973e+00 3.6743340e+00 4.0000010e+00
      endloop
   endfacet
   facet normal 7.4929561e-01 4.8953925e-01 -4.4599037e-01
      outer loop
         vertex 3.7589485e+00 2.9518958e+00 4.0000010e+00
         vertex 2.0000010e+00 2.0000010e+00 1.0000000e-06
         vertex 3.5782820e+00 3.2284264e+00 4.0000010e+00
      endloop
   endfacet
   facet normal 8.6764984e-01 2.1971878e-01 -4.4599037e-01
      outer loop
         vertex 3.9727236e+00 2.3291902e+00 4.0000010e+00
         vertex 2.0000010e+00 2.0000010e+00 1.0000000e-06
         vertex 3.8916355e+00 2.6493999e+00 4.0000010e+00
      endloop
   endfacet
   facet normal 8.9198075e-01 -7.3911632e-02 -4.4599037e-01
      outer loop
         vertex 3.9727236e+00 1.6708118e+00 4.0000010e+00
         vertex 2.0000010e+00 2.0000010e+00 1.0000000e-06
         vertex 4.0000010e+00 2.0000010e+00 4.0000010e+00
      endloop
   endfacet
   facet normal 8.1965170e-01 -3.5953257e-01 -4.4599037e-01
      outer loop
         vertex 3.7589485e+00 1.0481062e+00 4.0000010e+00
         vertex 2.0000010e+00 2.0000010e+00 1.0000000e-06
         vertex 3.8916355e+00 1.3506021e+00 4.0000010e+00
      endloop
   endfacet
   facet normal 6.5850068e-01 -6.0619258e-01 -4.4599037e-01
      outer loop
         vertex 3.3545641e+00 5.2855318e-01 4.0000010e+00
         vertex 2.0000010e+00 2.0000010e+00 1.0000000e-06
         vertex 3.5782820e+00 7.7157557e-01 4.0000010e+00
      endloop
   endfacet
   facet normal 4.2599089e-01 -7.8716221e-01 -4.4599037e-01
      outer loop
         vertex 2.8033918e+00 1.6845435e-01 4.0000010e+00
         vertex 2.0000010e+00 2.0000010e+00 1.0000000e-06
         vertex 3.0938973e+00 3.2566804e-01 4.0000010e+00
      endloop
   endfacet
   facet normal 1.4731837e-01 -8.8283061e-01 -4.4599037e-01
      outer loop
         vertex 2.1651597e+00 6.8320140e-03 4.0000010e+00
         vertex 2.0000010e+00 2.0000010e+00 1.0000000e-06
         vertex 2.4909720e+00 6.1200468e-02 4.0000010e+00
      endloop
   endfacet
   facet normal -1.4731837e-01 -8.8283061e-01 -4.4599037e-01
      outer loop
         vertex 1.5090300e+00 6.1200468e-02 4.0000010e+00
         vertex 2.0000010e+00 2.0000010e+00 1.0000000e-06
         vertex 1.8348423e+00 6.8320140e-03 4.0000010e+00
      endloop
   endfacet
   facet normal -4.2599089e-01 -7.8716221e-01 -4.4599037e-01
      outer loop
         vertex 9.0610468e-01 3.2566804e-01 4.0000010e+00
         vertex 2.0000010e+00 2.0000010e+00 1.0000000e-06
         vertex 1.1966102e+00 1.6845435e-01 4.0000010e+00
      endloop
   endfacet
   facet normal -5.4974357e-01 -7.0631055e-01 -4.4599037e-01
      outer loop
         vertex 6.4543786e-01 5.2855318e-01 4.0000010e+00
         vertex 2.0000010e+00 2.0000010e+00 1.0000000e-06
         vertex 9.0610468e-01 3.2566804e-01 4.0000010e+00
      endloop
   endfacet
   facet normal -7.4929561e-01 -4.8953925e-01 -4.4599037e-01
      outer loop
         vertex 2.4105350e-01 1.0481062e+00 4.0000010e+00
         vertex 2.0000010e+00 2.0000010e+00 1.0000000e-06
         vertex 4.2171998e-01 7.7157557e-01 4.0000010e+00
      endloop
   endfacet
   facet normal -8.6764984e-01 -2.1971878e-01 -4.4599037e-01
      outer loop
         vertex 2.7278393e-02 1.6708118e+00 4.0000010e+00
         vertex 2.0000010e+00 2.0000010e+00 1.0000000e-06
         vertex 1.0836652e-01 1.3506021e+00 4.0000010e+00
      endloop
   endfacet
   facet normal 8.9198075e-01 7.3911632e-02 -4.4599037e-01
      outer loop
         vertex 4.0000010e+00 2.0000010e+00 4.0000010e+00
         vertex 2.0000010e+00 2.0000010e+00 1.0000000e-06
         vertex 3.9727236e+00 2.3291902e+00 4.0000010e+00
      endloop
   endfacet
   facet normal 8.1965170e-01 3.5953257e-01 -4.4599037e-01
      outer loop
         vertex 3.8916355e+00 2.6493999e+00 4.0000010e+00
         vertex 2.0000010e+00 2.0000010e+00 1.0000000e-06
         vertex 3.7589485e+00 2.9518958e+00 4.0000010e+00
      endloop
   endfacet
   facet normal 6.5850068e-01 6.0619258e-01 -4.4599037e-01
      outer loop
         vertex 3.5782820e+00 3.2284264e+00 4.0000010e+00
         vertex 2.0000010e+00 2.0000010e+00 1.0000000e-06
         vertex 3.3545641e+00 3.4714488e+00 4.0000010e+00
      endloop
   endfacet
   facet normal 4.2599089e-01 7.8716221e-01 -4.4599037e-01
      outer loop
         vertex 3.0938973e+00 3.6743340e+00 4.0000010e+00
         vertex 2.0000010e+00 2.0000010e+00 1.0000000e-06
         vertex 2.8033918e+00 3.8315477e+00 4.0000010e+00
      endloop
   endfacet
   facet normal 1.4731837e-01 8.8283061e-01 -4.4599037e-01
      outer loop
         vertex 2.4909720e+00 3.9388015e+00 4.0000010e+00
         vertex 2.0000010e+00 2.0000010e+00 1.0000000e-06
         vertex 2.1651597e+00 3.9931700e+00 4.0000010e+00
      endloop
   endfacet
   facet normal -1.4731837e-01 8.8283061e-01 -4.4599037e-01
      outer loop
         vertex 1.8348423e+00 3.9931700e+00 4.0000010e+00
         vertex 2.0000010e+00 2.0000010e+00 1.0000000e-06
         vertex 1.5090300e+00 3.9388015e+00 4.0000010e+00
      endloop
   endfacet
   facet normal -5.4974357e-01 7.0631055e-01 -4.4599037e-01
      outer loop
         vertex 9.0610468e-01 3.6743340e+00 4.0000010e+00
         vertex 2.0000010e+00 2.0000010e+00 1.0000000e-06
         vertex 6.4543786e-01 3.4714488e+00 4.0000010e+00
      endloop
   endfacet
   facet normal -7.4929561e-01 4.8953925e-01 -4.4599037e-01
      outer loop
         vertex 4.2171998e-01 3.2284264e+00 4.0000010e+00
         vertex 2.0000010e+00 2.0000010e+00 1.0000000e-06
         vertex 2.4105350e-01 2.9518958e+00 4.0000010e+00
      endloop
   endfacet
   facet normal -8.6764984e-01 2.1971878e-01 -4.4599037e-01
      outer loop
         vertex 1.0836652e-01 2.6493999e+00 4.0000010e+00
         vertex 2.0000010e+00 2.0000010e+00 1.0000000e-06
         vertex 2.7278393e-02 2.3291902e+00 4.0000010e+00
      endloop
   endfacet
   facet normal -8.9198075e-01 -7.3911632e-02 -4.4599037e-01
      outer loop
         vertex 1.0000000e-06 2.0000010e+00 4.0000010e+00
         vertex 2.0000010e+00 2.0000010e+00 1.0000000e-06
         vertex 2.7278393e-02 1.6708118e+00 4.0000010e+00
      endloop
   endfacet
   facet normal -8.1965170e-01 -3.5953257e-01 -4.4599037e-01
      outer loop
         vertex 1.0836652e-01 1.3506021e+00 4.0000010e+00
         vertex 2.0000010e+00 2.0000010e+00 1.0000000e-06
         vertex 2.4105350e-01 1.0481062e+00 4.0000010e+00
      endloop
   endfacet
   facet normal -6.5850068e-01 -6.0619258e-01 -4.4599037e-01
      outer loop
         vertex 4.2171998e-01 7.7157557e-01 4.0000010e+00
         vertex 2.0000010e+00 2.0000010e+00 1.0000000e-06
         vertex 6.4543786e-01 5.2855318e-01 4.0000010e+00
      endloop
   endfacet
   facet normal -2.9061828e-01 -8.4654214e-01 -4.4599037e-01
      outer loop
         vertex 1.1966102e+00 1.6845435e-01 4.0000010e+00
         vertex 2.0000010e+00 2.0000010e+00 1.0000000e-06
         vertex 1.5090300e+00 6.1200468e-02 4.0000010e+00
      endloop
   endfacet
   facet normal 0.0000000e+00 -8.9503776e-01 -4.4599037e-01
      outer loop
         vertex 1.8348423e+00 6.8320140e-03 4.0000010e+00
         vertex 2.0000010e+00 2.0000010e+00 1.0000000e-06
         vertex 2.1651597e+00 6.8320140e-03 4.0000010e+00
      endloop
   endfacet
   facet normal 2.9061828e-01 -8.4654214e-01 -4.4599037e-01
      outer loop
         vertex 2.4909720e+00 6.1200468e-02 4.0000010e+00
         vertex 2.0000010e+00 2.0000010e+00 1.0000000e-06
         vertex 2.8033918e+00 1.6845435e-01 4.0000010e+00
      endloop
   endfacet
   facet normal 5.4974357e-01 -7.0631055e-01 -4.4599037e-01
      outer loop
         vertex 3.0938973e+00 3.2566804e-01 4.0000010e+00
         vertex 2.0000010e+00 2.0000010e+00 1.0000000e-06
         vertex 3.3545641e+00 5.2855318e-01 4.0000010e+00
      endloop
   endfacet
   facet normal 7.4929561e-01 -4.8953925e-01 -4.4599037e-01
      outer loop
         vertex 3.5782820e+00 7.7157557e-01 4.0000010e+00
         vertex 2.0000010e+00 2.0000010e+00 1.0000000e-06
         vertex 3.7589485e+00 1.0481062e+00 4.0000010e+00
      endloop
   endfacet
   facet normal 8.6764984e-01 -2.1971878e-01 -4.4599037e-01
      outer loop
         vertex 3.8916355e+00 1.3506021e+00 4.0000010e+00
         vertex 2.0000010e+00 2.0000010e+00 1.0000000e-06
         vertex 3.9727236e+00 1.6708118e+00 4.0000010e+00
      endloop
   endfacet
endsolid AutoCAD
